<?xml version="1.0" encoding="UTF-8" standalone="no"?>
<!-- Created with Inkscape (http://www.inkscape.org/) -->

<svg
   width="41.627777mm"
   height="33.16111mm"
   viewBox="0 0 41.627777 33.16111"
   version="1.1"
   id="svg5"
   inkscape:version="1.1.1 (3bf5ae0d25, 2021-09-20)"
   sodipodi:docname="dino-bow-1.svg"
   xmlns:inkscape="http://www.inkscape.org/namespaces/inkscape"
   xmlns:sodipodi="http://sodipodi.sourceforge.net/DTD/sodipodi-0.dtd"
   xmlns="http://www.w3.org/2000/svg"
   xmlns:svg="http://www.w3.org/2000/svg">
  <sodipodi:namedview
     id="namedview7"
     pagecolor="#ffffff"
     bordercolor="#666666"
     borderopacity="1.0"
     inkscape:pageshadow="2"
     inkscape:pageopacity="0.0"
     inkscape:pagecheckerboard="0"
     inkscape:document-units="mm"
     showgrid="false"
     inkscape:zoom="3.6233469"
     inkscape:cx="79.760511"
     inkscape:cy="49.953815"
     inkscape:window-width="2160"
     inkscape:window-height="1370"
     inkscape:window-x="-11"
     inkscape:window-y="25"
     inkscape:window-maximized="1"
     inkscape:current-layer="layer1" />
  <defs
     id="defs2" />
  <g
     inkscape:label="Warstwa 1"
     inkscape:groupmode="layer"
     id="layer1"
     transform="translate(-88.642708,-116.98369)">
    <path
       style="fill:#535353;stroke-width:2.8;stroke-miterlimit:4;stroke-dasharray:none;paint-order:markers stroke fill;stroke:#33a9ff;stroke-opacity:1;fill-opacity:1.0"
       d="m 97.958301,146.0529 v -2.82223 h 0.352778 0.352778 v -0.70555 -0.70556 h -0.705556 -0.705555 v -0.70555 -0.70556 H 96.54719 95.841634 v -0.70555 -0.70556 h -0.705555 -0.705556 v -0.70555 -0.70556 h -0.705555 -0.705556 v -0.70556 -0.70555 h -0.705555 -0.705556 v -0.70556 -0.70555 H 90.902746 90.19719 v -2.11667 -2.11666 h 0.705556 0.705555 v 0.70555 0.70556 h 1.411111 1.411111 v 0.70555 0.70556 h 2.822223 2.822224 v -0.70556 -0.70555 h 5.99722 5.99722 v 0.70555 0.70556 h 1.41111 1.41111 v -0.35278 -0.35278 h 0.70556 0.70556 v -0.70555 -0.70556 h 5.64444 5.64444 v 0.70556 0.70555 h 0.70556 0.70555 v 3.175 3.175 h -3.52777 -3.52778 v 0.70556 0.70555 h 2.11667 2.11666 v 0.70556 0.70555 h -4.93889 -4.93888 v -0.70555 -0.70556 h -1.41112 -1.41111 v 1.05834 1.05833 h -0.70555 -0.70556 v 0.70555 0.70556 h 0.70556 0.70555 v 0.70556 0.70555 h -1.41111 -1.41111 v -1.41111 -1.41111 h -1.76389 -1.76389 v 0.35278 0.35277 h 0.70556 0.70555 v 0.70556 0.70556 h -1.76388 -1.76389 v -0.70556 -0.70556 h -1.41111 -1.41112 v 0.70556 0.70556 h -0.70555 -0.70556 v 0.70555 0.70556 h -0.70555 -0.705558 v 0.70555 0.70556 h 0.705558 0.70555 v 0.70555 0.70556 h -1.411108 -1.411111 z m 21.166669,-11.99445 v -0.70555 h -0.70556 -0.70555 v 0.70555 0.70556 h 0.70555 0.70556 z"
       id="path2784" />
  </g>
</svg>
