<?xml version="1.0" encoding="UTF-8" standalone="no"?>
<!-- Created with Inkscape (http://www.inkscape.org/) -->

<svg
   width="31.044443mm"
   height="33.16111mm"
   viewBox="0 0 31.044443 33.16111"
   version="1.1"
   id="svg5"
   inkscape:version="1.1.1 (3bf5ae0d25, 2021-09-20)"
   sodipodi:docname="dino-stationary-powerjump.svg"
   xmlns:inkscape="http://www.inkscape.org/namespaces/inkscape"
   xmlns:sodipodi="http://sodipodi.sourceforge.net/DTD/sodipodi-0.dtd"
   xmlns="http://www.w3.org/2000/svg"
   xmlns:svg="http://www.w3.org/2000/svg">
  <sodipodi:namedview
     id="namedview7"
     pagecolor="#ffffff"
     bordercolor="#666666"
     borderopacity="1.0"
     inkscape:pageshadow="2"
     inkscape:pageopacity="0.0"
     inkscape:pagecheckerboard="0"
     inkscape:document-units="mm"
     showgrid="false"
     inkscape:zoom="3.6233469"
     inkscape:cx="80.036499"
     inkscape:cy="50.505791"
     inkscape:window-width="2160"
     inkscape:window-height="1370"
     inkscape:window-x="-11"
     inkscape:window-y="25"
     inkscape:window-maximized="1"
     inkscape:current-layer="layer1" />
  <defs
     id="defs2" />
  <g
     inkscape:label="Warstwa 1"
     inkscape:groupmode="layer"
     id="layer1"
     transform="translate(-88.572357,-116.84225)">
    <path
       style="fill:#535353;stroke:#33a9ff;stroke-width:2.8;stroke-linecap:square;stroke-miterlimit:4;stroke-dasharray:none;stroke-opacity:1;paint-order:stroke markers fill"
       d="m 97.112047,145.91607 v -2.82223 h -0.70556 -0.70555 v -0.70555 -0.70556 h -0.70556 -0.70555 v -0.70555 -0.70556 h -0.70556 -0.70555 v -0.70555 -0.70556 h -0.70556 -0.70556 v -0.70555 -0.70556 h -0.70555 -0.70556 v -4.23333 -4.23334 h 0.70556 0.70555 v 1.41112 1.41111 h 0.70556 0.70556 v 0.70555 0.70556 h 0.70555 0.70556 v 0.70555 0.70556 h 1.41111 1.41111 v -0.70556 -0.70555 h 0.70555 0.70556 v -0.70556 -0.70555 h 1.05833 1.058333 v -0.70556 -0.70555 h 1.05833 1.05834 v -0.70556 -0.70556 h 0.70555 0.70556 v -4.58611 -4.58611 h 0.70555 0.70556 v -0.70555 -0.70556 h 5.64444 5.64445 v 0.70556 0.70555 h 0.70555 0.70556 v 3.175 3.175 h -3.52778 -3.52778 v 0.70556 0.70555 h 2.11667 2.11667 v 0.70556 0.70555 h -2.82223 -2.82222 v 1.41112 1.41111 h 1.41111 1.41111 v 1.41111 1.41111 h -0.70555 -0.70556 v -0.70556 -0.70555 h -0.70555 -0.70556 v 2.46944 2.46945 h -0.70555 -0.70556 v 1.05833 1.05833 h -0.70555 -0.70556 v 0.70556 0.70555 h -0.70555 -0.70556 v 2.82223 2.82222 h 0.70556 0.70555 v 0.70555 0.70556 h -1.41111 -1.41111 v -2.11667 -2.11666 h -0.70556 -0.70555 v -0.70556 -0.70556 h -0.70556 -0.70555 v 0.70556 0.70556 h -0.70556 -0.705555 v 0.70555 0.70556 h -0.705548 -0.70556 v 0.70555 0.70556 h 0.70556 0.705548 v 0.70555 0.70556 h -1.411108 -1.41111 z m 11.288883,-24.69445 v -0.70555 h -0.70555 -0.70556 v 0.70555 0.70556 h 0.70556 0.70555 z"
       id="path193" />
  </g>
</svg>
