<?xml version="1.0" encoding="UTF-8" standalone="no"?>
<!-- Created with Inkscape (http://www.inkscape.org/) -->

<svg
   width="846.3139mm"
   height="8.4666662mm"
   viewBox="0 0 846.3139 8.4666662"
   version="1.1"
   id="svg5"
   inkscape:version="1.1.1 (3bf5ae0d25, 2021-09-20)"
   sodipodi:docname="ground.svg"
   xmlns:inkscape="http://www.inkscape.org/namespaces/inkscape"
   xmlns:sodipodi="http://sodipodi.sourceforge.net/DTD/sodipodi-0.dtd"
   xmlns="http://www.w3.org/2000/svg"
   xmlns:svg="http://www.w3.org/2000/svg">
  <sodipodi:namedview
     id="namedview7"
     pagecolor="#ffffff"
     bordercolor="#666666"
     borderopacity="1.0"
     inkscape:pageshadow="2"
     inkscape:pageopacity="0.0"
     inkscape:pagecheckerboard="0"
     inkscape:document-units="mm"
     showgrid="false"
     inkscape:zoom="14.493388"
     inkscape:cx="29.185723"
     inkscape:cy="11.522496"
     inkscape:window-width="2160"
     inkscape:window-height="1370"
     inkscape:window-x="-11"
     inkscape:window-y="25"
     inkscape:window-maximized="1"
     inkscape:current-layer="layer1" />
  <defs
     id="defs2" />
  <g
     inkscape:label="Warstwa 1"
     inkscape:groupmode="layer"
     id="layer1"
     transform="translate(320.90076,-100.03996)">
    <path
       style="fill:#535353;fill-opacity:1;stroke-width:0.352778"
       d="m -320.88251,108.15385 v -0.35278 h 1.41111 1.41111 v 0.35278 0.35278 h -1.41111 -1.41111 z m 9.87778,0 v -0.35278 h 0.70555 0.70556 v 0.35278 0.35278 h -0.70556 -0.70555 z m 23.98889,0 v -0.35278 h 1.41111 1.41111 v 0.35278 0.35278 h -1.41111 -1.41111 z m 52.21111,0 v -0.35278 h 0.35278 0.35277 v 0.35278 0.35278 h -0.35277 -0.35278 z m 150.28334,0 v -0.35278 h 1.058334 1.058333 v 0.35278 0.35278 h -1.058333 -1.058334 z m 57.150001,0 v -0.35278 h 1.411111 1.411111 v 0.35278 0.35278 h -1.411111 -1.411111 z m 8.466667,0 v -0.35278 h 0.352778 0.352777 v 0.35278 0.35278 h -0.352777 -0.352778 z m 67.733334,0 v -0.35278 h 0.705556 0.705555 v 0.35278 0.35278 h -0.705555 -0.705556 z m 45.155556,0 v -0.35278 h 0.352778 0.352778 v 0.35278 0.35278 h -0.352778 -0.352778 z m 8.466662,0 v -0.35278 h 1.41111 1.41111 v 0.35278 0.35278 h -1.41111 -1.41111 z m 9.87778,0 v -0.35278 h 0.70555 0.70556 v 0.35278 0.35278 h -0.70556 -0.70555 z m 23.98889,0 v -0.35278 h 1.41111 1.41111 v 0.35278 0.35278 h -1.41111 -1.41111 z m 52.21111,0 v -0.35278 h 0.35278 0.35277 v 0.35278 0.35278 h -0.35277 -0.35278 z m 150.28333,0 v -0.35278 h 1.05834 1.05833 v 0.35278 0.35278 h -1.05833 -1.05834 z m 57.15,0 v -0.35278 h 1.41111 1.41112 v 0.35278 0.35278 h -1.41112 -1.41111 z m 8.46667,0 v -0.35278 h 0.35278 0.35278 v 0.35278 0.35278 h -0.35278 -0.35278 z m 67.73333,0 v -0.35278 h 0.70556 0.70556 v 0.35278 0.35278 h -0.70556 -0.70556 z m 45.15556,0 v -0.35278 h 0.35278 0.35278 v 0.35278 0.35278 h -0.35278 -0.35278 z m -809.27223,-0.70556 v -0.35277 h 0.35278 0.35277 v 0.35277 0.35278 h -0.35277 -0.35278 z m 20.46111,0 v -0.35277 h 0.70556 0.70555 v 0.35277 0.35278 h -0.70555 -0.70556 z m 14.11111,0 v -0.35277 h 1.41111 1.41111 v 0.35277 0.35278 h -1.41111 -1.41111 z m 33.16111,0 v -0.35277 h 0.70556 0.70555 v 0.35277 0.35278 h -0.70555 -0.70556 z m 28.92778,0 v -0.35277 h 0.35278 0.35278 v 0.35277 0.35278 h -0.35278 -0.35278 z m 7.05556,0 v -0.35277 h 1.05833 1.05833 v 0.35277 0.35278 h -1.05833 -1.05833 z m 52.21111,0 v -0.35277 h 0.35278 0.35277 v 0.35277 0.35278 h -0.35277 -0.35278 z m 2.82222,0 v -0.35277 h 0.70556 0.70555 v 0.35277 0.35278 h -0.70555 -0.70556 z m 11.28889,0 v -0.35277 h 1.05833 1.05834 v 0.35277 0.35278 h -1.05834 -1.05833 z m 128.4111175,0 v -0.35277 H 7.200833 7.9063886 v 0.35277 0.35278 H 7.200833 6.4952775 Z m 76.2000015,0 v -0.35277 h 0.352778 0.352778 v 0.35277 0.35278 h -0.352778 -0.352778 z m 48.683331,0 v -0.35277 h 0.35277 0.35278 v 0.35277 0.35278 h -0.35278 -0.35277 z m 20.46111,0 v -0.35277 h 0.70555 0.70556 v 0.35277 0.35278 h -0.70556 -0.70555 z m 14.11111,0 v -0.35277 h 1.41111 1.41111 v 0.35277 0.35278 h -1.41111 -1.41111 z m 33.16111,0 v -0.35277 h 0.70556 0.70555 v 0.35277 0.35278 h -0.70555 -0.70556 z m 28.92778,0 v -0.35277 h 0.35278 0.35277 v 0.35277 0.35278 h -0.35277 -0.35278 z m 7.05556,0 v -0.35277 h 1.05833 1.05833 v 0.35277 0.35278 h -1.05833 -1.05833 z m 52.21111,0 v -0.35277 h 0.35277 0.35278 v 0.35277 0.35278 h -0.35278 -0.35277 z m 2.82222,0 v -0.35277 h 0.70555 0.70556 v 0.35277 0.35278 h -0.70556 -0.70555 z m 11.28889,0 v -0.35277 h 1.05833 1.05833 v 0.35277 0.35278 h -1.05833 -1.05833 z m 128.41111,0 v -0.35277 h 0.70556 0.70555 v 0.35277 0.35278 h -0.70555 -0.70556 z m 76.2,0 v -0.35277 h 0.35278 0.35278 v 0.35277 0.35278 h -0.35278 -0.35278 z m -663.92778,-0.70555 v -0.35278 h 0.35277 0.35278 v 0.35278 0.35278 h -0.35278 -0.35277 z m 47.97777,0 v -0.35278 h 0.35278 0.35278 v 0.35278 0.35278 h -0.35278 -0.35278 z m 78.316678,0 v -0.35278 h 0.705555 0.705556 v 0.35278 0.35278 h -0.705556 -0.705555 z m 57.15,0 v -0.35278 h 0.352778 0.352778 v 0.35278 0.35278 h -0.352778 -0.352778 z m 16.933334,0 v -0.35278 h 1.058333 1.058334 v 0.35278 0.35278 h -1.058334 -1.058333 z m 222.955548,0 v -0.35278 h 0.35278 0.35278 v 0.35278 0.35278 h -0.35278 -0.35278 z m 47.97778,0 v -0.35278 h 0.35278 0.35278 v 0.35278 0.35278 h -0.35278 -0.35278 z m 78.31667,0 v -0.35278 h 0.70556 0.70555 v 0.35278 0.35278 h -0.70555 -0.70556 z m 57.15,0 v -0.35278 h 0.35278 0.35278 v 0.35278 0.35278 h -0.35278 -0.35278 z m 16.93333,0 v -0.35278 h 1.05834 1.05833 v 0.35278 0.35278 h -1.05833 -1.05834 z m -782.46112,-0.70556 v -0.35278 h 1.41111 1.41112 v 0.35278 0.35278 h -1.41112 -1.41111 z m 55.73889,0 v -0.35278 h 0.35278 0.35278 v 0.35278 0.35278 h -0.35278 -0.35278 z m 11.99445,0 v -0.35278 h 0.70555 0.70556 v 0.35278 0.35278 h -0.70556 -0.70555 z m 56.44444,0 v -0.35278 h 0.70556 0.70555 v 0.35278 0.35278 h -0.70555 -0.70556 z m 23.28334,0 v -0.35278 h 0.35277 0.35278 v 0.35278 0.35278 h -0.35278 -0.35277 z m 21.87222,0 v -0.35278 h 0.35278 0.35277 v 0.35278 0.35278 h -0.35277 -0.35278 z m 52.916672,0 v -0.35278 h 0.705556 0.705555 v 0.35278 0.35278 h -0.705555 -0.705556 z m 28.927778,0 v -0.35278 h 0.352778 0.352778 v 0.35278 0.35278 h -0.352778 -0.352778 z m 13.405556,0 v -0.35278 h 1.058334 1.058333 v 0.35278 0.35278 h -1.058333 -1.058334 z m 40.216667,0 v -0.35278 h 1.058334 1.0583325 v 0.35278 0.35278 h -1.0583325 -1.058334 z m 41.627779,0 v -0.35278 h 1.058333 1.058333 v 0.35278 0.35278 h -1.058333 -1.058333 z m 33.866667,0 v -0.35278 h 0.352778 0.352777 v 0.35278 0.35278 h -0.352777 -0.352778 z m 2.822222,0 v -0.35278 h 0.705556 0.705555 v 0.35278 0.35278 h -0.705555 -0.705556 z m 9.877778,0 v -0.35278 h 1.058333 1.058334 v 0.35278 0.35278 h -1.058334 -1.058333 z m 30.338881,0 v -0.35278 h 1.41111 1.41111 v 0.35278 0.35278 h -1.41111 -1.41111 z m 55.73889,0 v -0.35278 h 0.35278 0.35278 v 0.35278 0.35278 h -0.35278 -0.35278 z m 11.99445,0 v -0.35278 h 0.70555 0.70556 v 0.35278 0.35278 h -0.70556 -0.70555 z m 56.44444,0 v -0.35278 h 0.70556 0.70555 v 0.35278 0.35278 h -0.70555 -0.70556 z m 23.28334,0 v -0.35278 h 0.35277 0.35278 v 0.35278 0.35278 h -0.35278 -0.35277 z m 21.87222,0 v -0.35278 h 0.35278 0.35277 v 0.35278 0.35278 h -0.35277 -0.35278 z m 52.91667,0 v -0.35278 h 0.70555 0.70556 v 0.35278 0.35278 h -0.70556 -0.70555 z m 28.92777,0 v -0.35278 h 0.35278 0.35278 v 0.35278 0.35278 h -0.35278 -0.35278 z m 13.40556,0 v -0.35278 h 1.05833 1.05834 v 0.35278 0.35278 h -1.05834 -1.05833 z m 40.21667,0 v -0.35278 h 1.05833 1.05833 v 0.35278 0.35278 h -1.05833 -1.05833 z m 41.62777,0 v -0.35278 h 1.05834 1.05833 v 0.35278 0.35278 h -1.05833 -1.05834 z m 33.86667,0 v -0.35278 h 0.35278 0.35278 v 0.35278 0.35278 h -0.35278 -0.35278 z m 2.82222,0 v -0.35278 h 0.70556 0.70556 v 0.35278 0.35278 h -0.70556 -0.70556 z m 9.87778,0 v -0.35278 h 1.05834 1.05833 v 0.35278 0.35278 h -1.05833 -1.05834 z m -781.75556,-0.70555 v -0.35278 h 1.05833 1.05833 v 0.35278 0.35277 h -1.05833 -1.05833 z m 67.73333,0 v -0.35278 h 1.41111 1.41111 v 0.35278 0.35277 h -1.41111 -1.41111 z m 52.91667,0 v -0.35278 h 1.05833 1.05833 v 0.35278 0.35277 h -1.05833 -1.05833 z m 89.60556,0 v -0.35278 h 1.411112 1.411111 v 0.35278 0.35277 h -1.411111 -1.411112 z m 156.633336,0 v -0.35278 h 1.411111 1.411111 v 0.35278 0.35277 h -1.411111 -1.411111 z m 56.444434,0 v -0.35278 h 1.05834 1.05833 v 0.35278 0.35277 h -1.05833 -1.05834 z m 67.73334,0 v -0.35278 h 1.41111 1.41111 v 0.35278 0.35277 h -1.41111 -1.41111 z m 52.91667,0 v -0.35278 h 1.05833 1.05833 v 0.35278 0.35277 h -1.05833 -1.05833 z m 89.60555,0 v -0.35278 h 1.41111 1.41112 v 0.35278 0.35277 h -1.41112 -1.41111 z m 156.63334,0 v -0.35278 h 1.41111 1.41111 v 0.35278 0.35277 h -1.41111 -1.41111 z m -293.15834,-0.70556 v -0.35278 h -0.52917 -0.52916 v -0.35277 -0.35278 h -5.46806 -5.46805 v -0.35278 -0.35278 h -0.56402 -0.56403 l -0.98862,-1.05833 -0.98862,-1.05833 h -1.36811 -1.36807 l -0.50853,0.70555 -0.50853,0.70556 h -0.54981 -0.5498 l -0.50853,0.70555 -0.50853,0.70556 H -63.432602 -320.88251 v -0.35278 -0.35278 h 257.09713 257.09713 l 0.50852,-0.70555 0.50853,-0.70556 h 0.54981 0.5498 l 0.50853,-0.70555 0.50853,-0.70556 h 2.07363 2.07366 l 0.98863,1.05833 0.98862,1.05834 h 0.56402 0.56402 v 0.35277 0.35278 h 5.64445 5.64444 v 0.35278 0.35278 h 0.52917 0.52916 v 0.35278 0.35277 h 3.70417 3.70417 v -0.35277 -0.35278 h 0.52916 0.52917 v -0.35278 -0.35278 h 97.64155 97.64159 l 0.50853,-0.70555 0.50853,-0.70556 h 0.5498 0.54981 l 0.50853,-0.70555 0.50853,-0.70556 h 2.07362 2.07367 l 0.98862,1.05833 0.98863,1.05834 h 0.56402 0.56402 v 0.35277 0.35278 h 3.27349 3.27354 l 0.50852,-0.70555 0.50853,-0.70556 h 0.54981 0.5498 l 0.50853,-0.70555 0.50853,-0.70556 h 2.07363 2.07366 l 0.98863,1.05833 0.98862,1.05834 h 0.56402 0.56402 v 0.35277 0.35278 h 39.15834 39.15833 v 0.35278 0.35278 h -39.51111 -39.51111 v -0.35278 -0.35278 h -0.56402 -0.56403 l -0.98862,-1.05833 -0.98862,-1.05833 h -1.36811 -1.36807 l -0.50853,0.70555 -0.50853,0.70556 h -0.54981 -0.5498 l -0.50853,0.70555 -0.50853,0.70556 h -3.97909 -3.97905 v -0.35278 -0.35278 h -0.56402 -0.56402 l -0.98862,-1.05833 -0.98863,-1.05833 h -1.36811 -1.36807 l -0.50853,0.70555 -0.50853,0.70556 h -0.5498 -0.5498 l -0.50853,0.70555 -0.50853,0.70556 h -97.4652 -97.46517 v 0.35278 0.35277 h -0.52916 -0.52917 v 0.35278 0.35278 h -4.7625 -4.7625 z"
       id="path3556" />
  </g>
</svg>
