<?xml version="1.0" encoding="UTF-8" standalone="no"?>
<!-- Created with Inkscape (http://www.inkscape.org/) -->

<svg
   width="32.455559mm"
   height="28.222223mm"
   viewBox="0 0 32.455559 28.222223"
   version="1.1"
   id="svg5"
   inkscape:version="1.1.1 (3bf5ae0d25, 2021-09-20)"
   sodipodi:docname="ptero-1.svg"
   xmlns:inkscape="http://www.inkscape.org/namespaces/inkscape"
   xmlns:sodipodi="http://sodipodi.sourceforge.net/DTD/sodipodi-0.dtd"
   xmlns="http://www.w3.org/2000/svg"
   xmlns:svg="http://www.w3.org/2000/svg">
  <sodipodi:namedview
     id="namedview7"
     pagecolor="#ffffff"
     bordercolor="#666666"
     borderopacity="1.0"
     inkscape:pageshadow="2"
     inkscape:pageopacity="0.0"
     inkscape:pagecheckerboard="0"
     inkscape:document-units="mm"
     showgrid="false"
     inkscape:zoom="5.6568542"
     inkscape:cx="95.812969"
     inkscape:cy="73.362329"
     inkscape:window-width="2160"
     inkscape:window-height="1370"
     inkscape:window-x="-11"
     inkscape:window-y="25"
     inkscape:window-maximized="1"
     inkscape:current-layer="layer1" />
  <defs
     id="defs2" />
  <g
     inkscape:label="Warstwa 1"
     inkscape:groupmode="layer"
     id="layer1"
     transform="translate(308.62717,-85.726181)">
    <path
       style="fill:#535353;stroke-width:2.8;fill-opacity:1;stroke:#ffffff;stroke-opacity:1;stroke-miterlimit:4;stroke-dasharray:none;paint-order:stroke markers fill"
       d="m -293.10495,104.77618 v -0.70555 h -0.70555 -0.70556 v -0.70556 -0.70556 h -0.70555 -0.70556 v -0.70555 -0.70556 h -0.70555 -0.70556 v -0.70555 -0.705558 h -0.70556 -0.70555 v -0.705555 -0.705556 h -4.23333 -4.23334 V 97.720626 97.01507 h 0.70556 0.70555 v -0.705555 -0.705556 h 0.70556 0.70555 v -0.705556 -0.705555 h 0.70556 0.70556 v -0.705556 -0.705555 h 0.70555 0.70556 v -0.705556 -0.705555 h 1.41111 1.41111 v 1.411111 1.411111 h 0.70555 0.70556 v 1.411111 1.411111 h 0.70556 0.70555 v -2.822222 -2.822222 h -0.70555 -0.70556 v -2.116667 -2.116667 h 0.70556 0.70555 v 0.705556 0.705555 h 0.70556 0.70555 v 0.705556 0.705555 h 0.70556 0.70555 v 0.705556 0.705556 h 0.70556 0.70556 v 0.705555 0.705556 h 0.70555 0.70556 v 0.705555 0.705556 h 0.70555 0.70556 v 0.705555 0.705556 h 0.70555 0.70556 v 1.411111 1.411111 h 0.70555 0.70556 v 0.705556 0.705555 h 4.23333 4.23334 v 0.705558 0.70555 h -2.11667 -2.11667 v 0.70556 0.70555 h 1.41112 1.41111 v 0.70556 0.70556 h -2.11667 -2.11667 v 0.70555 0.70556 h -4.93889 -4.93889 z"
       id="path4334" />
  </g>
</svg>
